<svg width="70" height="70" viewBox="0 0 70 70" fill="none" xmlns="http://www.w3.org/2000/svg">
<rect width="64" height="64" rx="32" fill="#EDEDED"/>
<path d="M45.3602 38.4267L41.1868 28.6667C40.4268 26.88 39.2935 25.8667 38.0002 25.8C36.7202 25.7333 35.4802 26.6267 34.5335 28.3333L32.0002 32.88C31.4668 33.84 30.7068 34.4133 29.8802 34.48C29.0402 34.56 28.2002 34.12 27.5202 33.2533L27.2268 32.88C26.2802 31.6933 25.1068 31.12 23.9068 31.24C22.7069 31.36 21.6802 32.1867 21.0002 33.5333L18.6935 38.1333C17.8669 39.8 17.9469 41.7333 18.9202 43.3067C19.8935 44.88 21.5868 45.8267 23.4402 45.8267H40.4535C42.2402 45.8267 43.9068 44.9333 44.8935 43.44C45.9068 41.9467 46.0668 40.0667 45.3602 38.4267Z" fill="#1E2328"/>
<path d="M25.2938 27.1733C27.7827 27.1733 29.8004 25.1556 29.8004 22.6667C29.8004 20.1777 27.7827 18.16 25.2938 18.16C22.8048 18.16 20.7871 20.1777 20.7871 22.6667C20.7871 25.1556 22.8048 27.1733 25.2938 27.1733Z" fill="#1E2328"/>
<g filter="url(#filter0_dd_14302_31814)">
<rect x="44" y="44" width="20" height="20" rx="10" fill="#ED1C24"/>
<rect x="45" y="45" width="18" height="18" rx="9" stroke="white" strokeWidth="2"/>
<path d="M58.3413 49.6605C57.1428 48.462 55.969 48.4311 54.7397 49.6605L53.9921 50.408C53.9304 50.4698 53.9057 50.5686 53.9304 50.6551C54.3999 52.2922 55.7096 53.6019 57.3467 54.0714C57.3714 54.0776 57.3961 54.0838 57.4208 54.0838C57.4888 54.0838 57.5506 54.0591 57.6 54.0096L58.3413 53.2621C58.9529 52.6567 59.2495 52.0698 59.2495 51.4767C59.2556 50.8651 58.9591 50.2721 58.3413 49.6605Z" fill="white"/>
<path d="M56.2351 54.6335C56.056 54.547 55.883 54.4606 55.7162 54.3617C55.5803 54.2814 55.4506 54.1949 55.3208 54.1022C55.2158 54.0343 55.0922 53.9354 54.9749 53.8366C54.9625 53.8304 54.9193 53.7933 54.8698 53.7439C54.666 53.5709 54.4374 53.3485 54.2335 53.1014C54.215 53.0891 54.1841 53.0458 54.1409 52.9902C54.0791 52.9161 53.9741 52.7925 53.8814 52.6505C53.8073 52.5578 53.7208 52.4219 53.6405 52.286C53.5416 52.1192 53.4551 51.9524 53.3686 51.7794C53.2552 51.5364 52.9363 51.4642 52.7467 51.6538L49.2728 55.1278C49.1924 55.2081 49.1183 55.3625 49.0998 55.4675L48.7662 57.8336C48.7044 58.2537 48.8218 58.6491 49.0812 58.9147C49.3036 59.131 49.6125 59.2483 49.9461 59.2483C50.0203 59.2483 50.0944 59.2422 50.1685 59.2298L52.5408 58.8962C52.652 58.8777 52.8065 58.8035 52.8806 58.7232L56.3603 55.2436C56.5461 55.0577 56.4763 54.738 56.2351 54.6335Z" fill="white"/>
</g>
<defs>
<filter id="filter0_dd_14302_31814" x="38" y="38" width="32" height="32" filterUnits="userSpaceOnUse" color-interpolation-filters="sRGB">
<feFlood flood-opacity="0" result="BackgroundImageFix"/>
<feColorMatrix in="SourceAlpha" type="matrix" values="0 0 0 0 0 0 0 0 0 0 0 0 0 0 0 0 0 0 127 0" result="hardAlpha"/>
<feMorphology radius="2" operator="erode" in="SourceAlpha" result="effect1_dropShadow_14302_31814"/>
<feOffset/>
<feGaussianBlur stdDeviation="2"/>
<feColorMatrix type="matrix" values="0 0 0 0 0.0627451 0 0 0 0 0.0941176 0 0 0 0 0.156863 0 0 0 0.06 0"/>
<feBlend mode="normal" in2="BackgroundImageFix" result="effect1_dropShadow_14302_31814"/>
<feColorMatrix in="SourceAlpha" type="matrix" values="0 0 0 0 0 0 0 0 0 0 0 0 0 0 0 0 0 0 127 0" result="hardAlpha"/>
<feMorphology radius="2" operator="erode" in="SourceAlpha" result="effect2_dropShadow_14302_31814"/>
<feOffset/>
<feGaussianBlur stdDeviation="4"/>
<feColorMatrix type="matrix" values="0 0 0 0 0.0627451 0 0 0 0 0.0941176 0 0 0 0 0.156863 0 0 0 0.1 0"/>
<feBlend mode="normal" in2="effect1_dropShadow_14302_31814" result="effect2_dropShadow_14302_31814"/>
<feBlend mode="normal" in="SourceGraphic" in2="effect2_dropShadow_14302_31814" result="shape"/>
</filter>
</defs>
</svg>
